<!-- SPDX-License-Identifier: MIT -->
<svg xmlns="http://www.w3.org/2000/svg" viewBox="0 0 24 24">
  <path d="m9.6 3.9.45-1.4h3.9l.45 1.4a8.3 8.3 0 0 1 1.75.72l1.32-.67 2.58 2.58-.67 1.32c.31.56.55 1.15.72 1.75l1.4.45v3.9l-1.4.45a8.3 8.3 0 0 1-.72 1.75l.67 1.32-2.58 2.58-1.32-.67a8.3 8.3 0 0 1-1.75.72l-.45 1.4h-3.9l-.45-1.4a8.3 8.3 0 0 1-1.75-.72l-1.32.67-2.58-2.58.67-1.32a8.3 8.3 0 0 1-.72-1.75l-1.4-.45v-3.9l1.4-.45c.17-.6.41-1.19.72-1.75l-.67-1.32 2.58-2.58 1.32.67A8.3 8.3 0 0 1 9.6 3.9Z" fill="none" stroke="#000001" stroke-width="1.45" stroke-linejoin="round"/>
  <circle cx="12" cy="12" r="3.1" fill="none" stroke="#000002" stroke-width="1.7"/>
</svg>

